<?xml version="1.0" standalone="no"?>
<!DOCTYPE svg PUBLIC "-//W3C//DTD SVG 20010904//EN"
 "http://www.w3.org/TR/2001/REC-SVG-20010904/DTD/svg10.dtd">
<svg version="1.0" xmlns="http://www.w3.org/2000/svg"
 width="96.000000pt" height="96.000000pt" viewBox="0 0 96.000000 96.000000"
 preserveAspectRatio="xMidYMid meet">

<g transform="translate(0.000000,96.000000) scale(0.100000,-0.100000)"
fill="#000000" stroke="none">
<path d="M189 850 l-30 -29 3 -113 3 -113 25 0 c25 0 25 1 30 110 l5 110 168
3 167 2 0 -61 c0 -54 3 -64 29 -90 26 -26 36 -29 90 -29 l61 0 0 -50 0 -50
-294 0 c-254 0 -297 -2 -310 -16 -13 -12 -16 -40 -16 -143 0 -115 2 -130 20
-146 14 -12 20 -31 20 -57 0 -30 7 -46 29 -69 l29 -29 215 0 c179 0 217 3 227
15 10 12 10 18 0 30 -10 12 -51 15 -224 17 l-211 3 -3 37 -3 38 203 2 203 3 0
25 0 25 -222 3 -223 2 0 100 0 100 299 0 300 0 3 -42 c3 -38 6 -43 28 -43 23
0 25 4 28 56 2 45 -1 58 -18 74 -16 15 -20 30 -20 89 l0 71 -98 98 -97 97
-193 0 -194 0 -29 -30z m481 -148 c-36 -6 -50 5 -50 40 l0 32 36 -35 c33 -32
34 -34 14 -37z"/>
<path d="M291 434 c-12 -15 -21 -39 -21 -54 0 -36 35 -80 64 -80 29 0 64 36
49 51 -8 8 -17 7 -32 -3 -18 -11 -23 -11 -31 2 -5 8 -10 22 -10 30 0 8 5 22
10 30 8 13 13 13 31 2 31 -20 49 1 24 28 -25 28 -59 25 -84 -6z"/>
<path d="M424 435 c-15 -23 -15 -27 0 -50 10 -16 26 -25 41 -25 14 0 25 -5 25
-11 0 -7 -12 -9 -34 -5 -41 8 -59 -10 -31 -31 41 -29 105 -6 105 37 0 26 -27
50 -56 50 -13 0 -24 5 -24 11 0 7 12 9 35 5 30 -6 35 -4 35 12 0 39 -71 44
-96 7z"/>
<path d="M554 447 c-6 -17 52 -147 66 -147 14 0 72 130 66 147 -10 24 -27 13
-44 -27 -9 -22 -19 -40 -22 -40 -3 0 -13 18 -22 40 -17 40 -34 51 -44 27z"/>
<path d="M736 281 c-38 -38 -57 -65 -54 -77 5 -29 37 -29 69 2 l28 27 3 -114
3 -114 25 0 25 0 3 114 3 114 28 -27 c32 -31 64 -31 69 -2 5 22 -103 136 -128
136 -9 0 -42 -26 -74 -59z"/>
</g>
</svg>
