<?xml version="1.0" standalone="no"?>
<!DOCTYPE svg PUBLIC "-//W3C//DTD SVG 20010904//EN"
 "http://www.w3.org/TR/2001/REC-SVG-20010904/DTD/svg10.dtd">
<svg version="1.0" xmlns="http://www.w3.org/2000/svg"
 width="96.000000pt" height="96.000000pt" viewBox="0 0 96.000000 96.000000"
 preserveAspectRatio="xMidYMid meet">

<g transform="translate(0.000000,96.000000) scale(0.100000,-0.100000)"
fill="#000000" stroke="none">
<path d="M189 850 l-30 -29 3 -113 3 -113 25 0 c25 0 25 1 30 110 l5 110 168
3 167 2 0 -61 c0 -54 3 -64 29 -90 26 -26 36 -29 90 -29 l61 0 0 -50 0 -50
-294 0 c-254 0 -297 -2 -310 -16 -13 -12 -16 -40 -16 -143 0 -115 2 -130 20
-146 14 -12 20 -31 20 -57 0 -30 7 -46 29 -69 l29 -29 185 0 c152 0 187 3 197
15 10 12 10 18 0 30 -10 12 -48 15 -194 17 l-181 3 -3 37 -3 38 243 2 243 3 0
25 0 25 -262 3 -263 2 0 100 0 100 299 0 300 0 3 -32 c2 -28 7 -33 28 -33 23
0 25 4 28 46 2 35 -2 49 -18 64 -17 15 -20 30 -20 89 l0 71 -98 98 -97 97
-193 0 -194 0 -29 -30z m481 -148 c-36 -6 -50 5 -50 40 l0 32 36 -35 c33 -32
34 -34 14 -37z"/>
<path d="M291 434 c-12 -15 -21 -39 -21 -54 0 -36 35 -80 64 -80 29 0 64 36
49 51 -8 8 -17 7 -32 -3 -18 -11 -23 -11 -31 2 -5 8 -10 22 -10 30 0 8 5 22
10 30 8 13 13 13 31 2 31 -20 49 1 24 28 -25 28 -59 25 -84 -6z"/>
<path d="M424 435 c-15 -23 -15 -27 0 -50 10 -16 26 -25 41 -25 14 0 25 -5 25
-11 0 -7 -12 -9 -34 -5 -41 8 -59 -10 -31 -31 41 -29 105 -6 105 37 0 26 -27
50 -56 50 -13 0 -24 5 -24 11 0 7 12 9 35 5 30 -6 35 -4 35 12 0 39 -71 44
-96 7z"/>
<path d="M554 447 c-6 -17 52 -147 66 -147 14 0 72 130 66 147 -10 24 -27 13
-44 -27 -9 -22 -19 -40 -22 -40 -3 0 -13 18 -22 40 -17 40 -34 51 -44 27z"/>
<path d="M787 334 c-4 -4 -7 -57 -7 -118 l0 -110 -29 28 c-32 30 -64 31 -69 2
-5 -22 103 -136 128 -136 25 0 133 114 128 136 -5 29 -37 29 -69 -2 l-28 -27
-3 114 c-3 106 -4 114 -23 117 -12 2 -24 0 -28 -4z"/>
</g>
</svg>
