<?xml version="1.0" standalone="no"?>
<!DOCTYPE svg PUBLIC "-//W3C//DTD SVG 20010904//EN"
 "http://www.w3.org/TR/2001/REC-SVG-20010904/DTD/svg10.dtd">
<svg version="1.0" xmlns="http://www.w3.org/2000/svg"
 width="75.000000pt" height="75.000000pt" viewBox="0 0 75.000000 75.000000"
 preserveAspectRatio="xMidYMid meet">

<g transform="translate(0.000000,75.000000) scale(0.100000,-0.100000)"
fill="#000000" stroke="none">
<path d="M42 678 c-7 -7 -12 -16 -12 -21 0 -5 55 -75 123 -155 l122 -146 5
-110 5 -110 78 -39 c109 -55 107 -58 107 167 l-1 181 -29 -35 c-29 -34 -30
-37 -30 -147 0 -71 -4 -113 -10 -113 -6 0 -22 7 -35 16 -24 15 -25 21 -25 113
l0 97 -95 112 c-52 62 -97 117 -100 122 -4 6 80 10 231 10 185 0 235 -3 226
-12 -20 -20 -13 -28 26 -28 31 0 42 6 66 36 22 28 27 41 19 53 -9 14 -49 16
-334 19 -244 2 -328 -1 -337 -10z"/>
<path d="M496 548 c4 -7 18 -29 30 -49 l23 -36 -35 -52 -35 -51 35 0 c30 0 38
5 52 32 l16 31 19 -24 c10 -13 19 -27 19 -31 0 -5 16 -8 35 -8 l34 0 -31 51
-32 51 28 49 27 49 -30 0 c-24 0 -34 -7 -47 -31 l-16 -31 -19 31 c-14 24 -26
31 -49 31 -22 0 -29 -4 -24 -12z"/>
</g>
</svg>
